<svg id="Layer_1" data-name="Layer 1" xmlns="http://www.w3.org/2000/svg" viewBox="0 0 272.75 63.66"><defs><style>.cls-1{fill:#36499b;}.cls-2{fill:#fff;}.cls-3{fill:#ffd100;}.cls-4{fill:#231f20;}.cls-5{fill:#b76646;}</style></defs><title>MasterfeedsAnAlltechCo</title><path class="cls-1" d="M531.73,290.92a2,2,0,1,1-2-1.93A1.94,1.94,0,0,1,531.73,290.92Zm-3.48,0a1.5,1.5,0,0,0,1.51,1.54,1.54,1.54,0,0,0,0-3.08A1.5,1.5,0,0,0,528.25,290.92Zm1.19,1H529V290a4.52,4.52,0,0,1,.75-.06,1.26,1.26,0,0,1,.67.14.57.57,0,0,1,.18.43.5.5,0,0,1-.4.45v0a.57.57,0,0,1,.36.47,1.45,1.45,0,0,0,.14.48h-.48a1.63,1.63,0,0,1-.16-.47c0-.21-.15-.3-.4-.3h-.21Zm0-1.09h.21c.25,0,.45-.09.45-.29s-.13-.29-.41-.29l-.25,0Z" transform="translate(-258.97 -274.41)"/><path class="cls-2" d="M280.33,277.49a18.29,18.29,0,1,0,18.29,18.29A18.29,18.29,0,0,0,280.33,277.49Z" transform="translate(-258.97 -274.41)"/><path class="cls-3" d="M280.34,279a16.83,16.83,0,1,0,16.83,16.83A16.82,16.82,0,0,0,280.34,279Z" transform="translate(-258.97 -274.41)"/><path class="cls-1" d="M280.34,274.41a21.37,21.37,0,1,0,21.37,21.37A21.37,21.37,0,0,0,280.34,274.41Zm0,39.66a18.29,18.29,0,1,1,18.29-18.29A18.29,18.29,0,0,1,280.33,314.07Z" transform="translate(-258.97 -274.41)"/><path class="cls-1" d="M395.88,302.46V294.9h3.46l1.26-5.72h-4.72V282.3h-6.52v6.86H378c-6.13,0-7.88,3.07-7.88,6.58a5.67,5.67,0,0,0,4.16,5.55c2.24.81,4.59,1.63,5.45,1.85s2,.43,2,1.25a.93.93,0,0,1-1,1h-12.1V289.17H363v2a9.18,9.18,0,0,0-6.3-2.07,10.89,10.89,0,1,0,0,21.77c4.61,0,6.3-2.06,6.3-2.06v1.87h18.61l.1,0a6.17,6.17,0,0,0,6.17-6.17,6.44,6.44,0,0,0-5-6.22L377.53,297c-1.18-.29-1.43-.69-1.43-1.09s.16-1.05,1.36-1.05h11.92s0,5.84,0,9.26c0,4.8,3.34,6.53,7.46,6.53h2.5l0-6.33h-1c-1.55,0-2.44-.09-2.44-1.84Zm-39.22,2A4.45,4.45,0,1,1,361.1,300,4.44,4.44,0,0,1,356.66,304.46Z" transform="translate(-258.97 -274.41)"/><path class="cls-1" d="M344.66,290.75c.06-3.22-1.39-6.49-5.72-8.35a10.91,10.91,0,0,0-11,1.43,11,11,0,0,0-11-1.43c-4,1.85-5.78,4.67-5.78,8.88,0,2.81,0,4.86,0,5.09v14.32h7.09V292.2a3.19,3.19,0,1,1,6.37,0l0,18.5h6.78V292.2a3.19,3.19,0,1,1,6.37,0v18.49h7S344.62,292.94,344.66,290.75Z" transform="translate(-258.97 -274.41)"/><path class="cls-1" d="M442.91,289.17c0-3.63,4.94-3.28,4.94-3.28v-5.82c-9.81,0-11.33,5.58-11.33,9.1h-6.73c-5.61,0-8.24,2.4-8.92,5.86a10.94,10.94,0,0,0-20.8,4.76c0,6,4.95,11.41,11,11.41a14.47,14.47,0,0,0,6.9-1.37l-.82-6.08c-6.51,2.46-7.3.9-7.3.9l10.86-8c0,.14,0,.27,0,.41l0,13.7H427l0-10.21c0-4.92.54-5.67,4.93-5.67h4.33v15.89h6.62V294.88h3.68l1.31-5.71ZM406.5,300.52a4.4,4.4,0,0,1-.06-.73,4.58,4.58,0,0,1,4.58-4.58,4.64,4.64,0,0,1,2.31.62Z" transform="translate(-258.97 -274.41)"/><path class="cls-1" d="M502.44,282.3v8a11.07,11.07,0,0,0-14.74,4.92,10.94,10.94,0,0,0-19.9,0,10.94,10.94,0,0,0-20.89,4.57c0,6.05,4.95,11.42,11,11.42a14.54,14.54,0,0,0,6.9-1.38l-.83-6.08c-6.5,2.46-7.3.9-7.3.9l10.53-7.8a11,11,0,0,0-.41,2.94c0,6.05,4.95,11.42,11,11.42a14.54,14.54,0,0,0,6.9-1.38l-.83-6.08c-6.5,2.46-7.3.9-7.3.9L487,296.89a11.16,11.16,0,1,0,21.82,3.43l0-18Zm-49.09,18.21a4.52,4.52,0,0,1-.06-.74,4.57,4.57,0,0,1,6.89-3.95Zm19.88,0a4.52,4.52,0,0,1-.06-.74,4.58,4.58,0,0,1,6.9-3.95Zm24.33,4.12a4.36,4.36,0,1,1,4.36-4.36A4.36,4.36,0,0,1,497.56,304.63Z" transform="translate(-258.97 -274.41)"/><path class="cls-1" d="M523.08,298.3,517.76,297c-1.18-.29-1.43-.69-1.43-1.09s.16-1.05,1.36-1.05h8.64v-5.68h-8.09c-6.13,0-7.88,3.07-7.88,6.58a5.69,5.69,0,0,0,4.16,5.55c2.25.81,4.59,1.63,5.45,1.85s2,.43,2,1.25a.92.92,0,0,1-1,1H508.85v5.35H521.8l.1,0a6.18,6.18,0,0,0,6.18-6.17A6.44,6.44,0,0,0,523.08,298.3Z" transform="translate(-258.97 -274.41)"/><polygon class="cls-1" points="9.59 29.01 32.44 29.01 32.44 27.45 9.59 27.48 9.59 29.01"/><path class="cls-1" d="M268.56,301h6.27v-3.49h3V301h13.58V285.9a2.55,2.55,0,0,0-4.32-1.51c-1.59-1.45-4.45-.52-4.45,1.67v3.86h-12.7l-1.61,3.36-.6,3.54h.84Z" transform="translate(-258.97 -274.41)"/><polygon class="cls-1" points="32.44 29.81 9.59 29.81 9.59 31.41 32.44 31.37 32.44 29.81"/><polygon class="cls-2" points="11.15 25.03 14.25 25.03 14.25 21.59 20.34 21.59 20.34 25.04 23.54 25.04 23.55 21.59 24.27 21.59 23.84 19.25 22.73 17.1 11.89 17.1 10.76 19.26 10.41 21.59 11.15 21.59 11.15 25.03"/><path class="cls-2" d="M289.74,286.42a1,1,0,0,0-1.93,0v13h1.93Z" transform="translate(-258.97 -274.41)"/><path class="cls-2" d="M286.23,286.42a1,1,0,0,0-1.93,0v6.26l.71,4.15h-.71v2.61h1.93Z" transform="translate(-258.97 -274.41)"/><polygon class="cls-4" points="166.51 47.15 165.75 50 164 50 163.38 52.52 165.08 52.55 163.85 58.25 163.81 58.49 163.83 58.72 163.88 58.94 163.97 59.16 164.08 59.36 164.24 59.55 164.42 59.73 164.62 59.89 164.84 60.04 165.1 60.17 165.35 60.29 165.64 60.38 165.92 60.46 166.21 60.51 166.51 60.55 166.82 60.56 168.65 60.56 169.38 57.96 168.42 57.64 168.28 57.59 168.18 57.51 168.1 57.41 168.05 57.29 168.01 57.16 168.01 57.02 168.05 56.88 168.1 56.73 169.03 52.65 170.76 52.65 171.32 50.17 169.53 50.17 170.21 47.15 166.51 47.15"/><polygon class="cls-4" points="160 46.28 156.83 60.58 160.96 60.58 164.03 46.28 160 46.28"/><polygon class="cls-5" points="132.23 60.54 137.12 60.54 142.15 52.24 139.82 48.03 132.23 60.54"/><polygon class="cls-5" points="144.22 40.98 141.44 45.69 146.47 54.74 144.34 56.17 143.66 54.96 141.93 57.82 148.18 57.82 149.71 60.58 149.72 60.58 155.09 60.58 144.22 40.98"/><polygon class="cls-4" points="155.01 46.3 153.37 53.41 156.11 58.35 158.82 46.3 155.01 46.3"/><path class="cls-4" d="M432.86,328.82h4.22a1.94,1.94,0,0,0-2.05-1.66,2.06,2.06,0,0,0-2.17,1.66m-3.43-.76s1.17-3.32,5.64-3.59c0,0,3-.12,4.41,1.73a4.67,4.67,0,0,1,1.13,3.54,8,8,0,0,1-.11,1l-7.91,0s-.16,1.45,2.34,1.66a4.11,4.11,0,0,0,1.35-.19s.59-.14.61-.47l3.33,0a4.24,4.24,0,0,1-2,2.42,7.13,7.13,0,0,1-4,.88,6.87,6.87,0,0,1-3.71-1,4.39,4.39,0,0,1-1.62-3.78,7.32,7.32,0,0,1,.53-2.13" transform="translate(-258.97 -274.41)"/><path class="cls-4" d="M453.28,328.67h-3.63a2,2,0,0,0-1-1.53,2.19,2.19,0,0,0-2.46.36,3.87,3.87,0,0,0-1.18,2.32,2.53,2.53,0,0,0,.51,1.93,2.35,2.35,0,0,0,1.21.53,2.39,2.39,0,0,0,2.29-1.07,3.64,3.64,0,0,0,.37-.71h3.43a6,6,0,0,1-1.27,2.64,5.45,5.45,0,0,1-3.69,1.79,8.4,8.4,0,0,1-3.27-.21,4.86,4.86,0,0,1-2.78-2,5.34,5.34,0,0,1-.43-3.67,6.63,6.63,0,0,1,3-3.75,6.45,6.45,0,0,1,3.35-.88,7.27,7.27,0,0,1,3.27.69,4.25,4.25,0,0,1,2.2,3.14Z" transform="translate(-258.97 -274.41)"/><path class="cls-4" d="M458.58,328.53a1.79,1.79,0,0,1,1.25-.85,1.84,1.84,0,0,1,1.33.14.55.55,0,0,1,.3.4,1.1,1.1,0,0,1,0,.27L460.29,335h4l1.23-8.05,0-.15,0-.17-.05-.17-.07-.18-.1-.19-.11-.18-.14-.19-.17-.17-.2-.17-.22-.16-.25-.14-.27-.13-.29-.11-.32-.08-.34-.05-.37,0H462l-.24,0-.25,0-.25,0-.25.05-.24.05-.25,0-.24.08-.22.07-.22.1-.18.1-.21.1-.17.12-.15.14.86-4.93h-4.08L452.94,335h4.15l1.3-5.94a1.38,1.38,0,0,1,.19-.5" transform="translate(-258.97 -274.41)"/><path class="cls-4" d="M467.31,324h.24c.28,0,.52-.1.52-.36s-.14-.37-.52-.37h-.24Zm0,1.17H467v-2.11a3.37,3.37,0,0,1,.6-.05,1.08,1.08,0,0,1,.66.16.48.48,0,0,1,.19.43.53.53,0,0,1-.41.52v0c.19,0,.31.2.35.51a1.4,1.4,0,0,0,.14.52h-.36a1.48,1.48,0,0,1-.14-.54.39.39,0,0,0-.45-.37h-.24Zm.35-2.7a1.61,1.61,0,1,0,1.53,1.61,1.56,1.56,0,0,0-1.53-1.61Zm0-.3a1.9,1.9,0,1,1-1.89,1.9,1.87,1.87,0,0,1,1.89-1.9Z" transform="translate(-258.97 -274.41)"/><path class="cls-4" d="M378.34,335.13l-.07-.93h0a3.33,3.33,0,0,1-1.11.83,3.19,3.19,0,0,1-1.26.22,1.85,1.85,0,0,1-1.43-.51,1.63,1.63,0,0,1-.33-1.43c.21-1.33,1.37-2,3.47-2.08l1.12-.05.06-.38a1.42,1.42,0,0,0-.15-1.1,1.14,1.14,0,0,0-1-.36,3.14,3.14,0,0,0-1,.16,8.33,8.33,0,0,0-.92.34l-.2-.8a5.52,5.52,0,0,1,1.14-.41,5,5,0,0,1,1.18-.15,2.24,2.24,0,0,1,1.68.52,1.92,1.92,0,0,1,.32,1.67l-.7,4.46Zm-2.1-.75a2.28,2.28,0,0,0,1.49-.48,2.18,2.18,0,0,0,.74-1.38l.09-.59-1,0a3.92,3.92,0,0,0-1.7.36,1.29,1.29,0,0,0-.67,1,.85.85,0,0,0,.19.79A1.12,1.12,0,0,0,376.24,334.38Z" transform="translate(-258.97 -274.41)"/><path class="cls-4" d="M385.6,335.13l.66-4.19a1.49,1.49,0,0,0-.17-1.18,1.22,1.22,0,0,0-1-.39,2.08,2.08,0,0,0-1.55.55,3.32,3.32,0,0,0-.74,1.82l-.53,3.39h-1.08l1-6.55H383l0,.9h.06a2.59,2.59,0,0,1,1-.75,3,3,0,0,1,1.25-.27,2.13,2.13,0,0,1,1.7.59,2.22,2.22,0,0,1,.29,1.82l-.67,4.26Z" transform="translate(-258.97 -274.41)"/><path class="cls-4" d="M472.87,335.25a2.42,2.42,0,0,1-2.07-.87,3.24,3.24,0,0,1-.39-2.49,4.3,4.3,0,0,1,1.19-2.53,3.35,3.35,0,0,1,2.41-.9,4.73,4.73,0,0,1,.93.1,2.56,2.56,0,0,1,.73.26l-.46.89a3.74,3.74,0,0,0-1.37-.31,2,2,0,0,0-1.56.62,3.55,3.55,0,0,0-.76,1.86,2.78,2.78,0,0,0,.18,1.82,1.38,1.38,0,0,0,1.3.62,4.37,4.37,0,0,0,1.76-.38l-.15,1A4.06,4.06,0,0,1,472.87,335.25Z" transform="translate(-258.97 -274.41)"/><path class="cls-4" d="M482.33,331.85a4.23,4.23,0,0,1-1.21,2.5,3.32,3.32,0,0,1-2.38.9,2.63,2.63,0,0,1-1.51-.42,2.2,2.2,0,0,1-.87-1.18,4,4,0,0,1-.08-1.8,4.13,4.13,0,0,1,1.19-2.49,3.29,3.29,0,0,1,2.38-.9,2.39,2.39,0,0,1,2,.91A3.22,3.22,0,0,1,482.33,331.85Zm-4.95,0a2.84,2.84,0,0,0,.2,1.87,1.41,1.41,0,0,0,1.33.64,2,2,0,0,0,1.52-.64,3.48,3.48,0,0,0,.79-1.87A2.72,2.72,0,0,0,481,330a1.45,1.45,0,0,0-1.34-.62C478.41,329.37,477.65,330.19,477.38,331.85Z" transform="translate(-258.97 -274.41)"/><path class="cls-4" d="M491.84,335.13l.66-4.21c.16-1-.2-1.55-1.09-1.55a1.86,1.86,0,0,0-1.42.53,2.9,2.9,0,0,0-.68,1.62l-.57,3.61h-1.07l.66-4.21a1.62,1.62,0,0,0-.14-1.17,1.05,1.05,0,0,0-.95-.38,1.82,1.82,0,0,0-1.42.55,3.48,3.48,0,0,0-.7,1.82l-.54,3.39h-1.07l1-6.55h.86l0,.9h.06a2.47,2.47,0,0,1,.91-.75,2.65,2.65,0,0,1,1.18-.27c1,0,1.64.37,1.83,1.1h.06a2.77,2.77,0,0,1,1-.81,2.94,2.94,0,0,1,1.29-.29,1.93,1.93,0,0,1,1.57.58,2.36,2.36,0,0,1,.26,1.83l-.67,4.26Z" transform="translate(-258.97 -274.41)"/><path class="cls-4" d="M498,335.25a2,2,0,0,1-1.88-.95h-.07l0,.25c0,.31,0,.58-.08.82l-.42,2.69h-1.08l1.5-9.48h.88v.9h.05a2.87,2.87,0,0,1,1-.78,2.92,2.92,0,0,1,1.2-.24,2,2,0,0,1,1.84.89,3.55,3.55,0,0,1,.31,2.5,4.59,4.59,0,0,1-1.1,2.5A2.82,2.82,0,0,1,498,335.25Zm.74-5.88a2,2,0,0,0-1.49.54,3.31,3.31,0,0,0-.71,1.73l0,.21a3.12,3.12,0,0,0,.14,1.92,1.43,1.43,0,0,0,1.34.59,1.75,1.75,0,0,0,1.39-.67,3.7,3.7,0,0,0,.76-1.86A2.87,2.87,0,0,0,500,330,1.28,1.28,0,0,0,498.75,329.37Z" transform="translate(-258.97 -274.41)"/><path class="cls-4" d="M506.48,335.13l-.06-.93h-.05a3.33,3.33,0,0,1-1.11.83,3.13,3.13,0,0,1-1.26.22,1.85,1.85,0,0,1-1.43-.51,1.63,1.63,0,0,1-.32-1.43c.2-1.33,1.36-2,3.47-2.08l1.11-.05.06-.38a1.42,1.42,0,0,0-.15-1.1,1.13,1.13,0,0,0-1-.36,3.14,3.14,0,0,0-1,.16,8.33,8.33,0,0,0-.92.34l-.2-.8a5.52,5.52,0,0,1,1.14-.41,5,5,0,0,1,1.18-.15,2.28,2.28,0,0,1,1.69.52,1.92,1.92,0,0,1,.31,1.67l-.7,4.46Zm-2.1-.75a2.33,2.33,0,0,0,1.5-.48,2.22,2.22,0,0,0,.73-1.38l.09-.59-1,0a3.92,3.92,0,0,0-1.7.36,1.29,1.29,0,0,0-.67,1,.85.85,0,0,0,.19.79A1.14,1.14,0,0,0,504.38,334.38Z" transform="translate(-258.97 -274.41)"/><path class="cls-4" d="M513.74,335.13l.66-4.19a1.54,1.54,0,0,0-.16-1.18,1.25,1.25,0,0,0-1-.39,2.09,2.09,0,0,0-1.56.55,3.32,3.32,0,0,0-.74,1.82l-.53,3.39h-1.07l1-6.55h.86l0,.9h.06a2.59,2.59,0,0,1,1-.75,3,3,0,0,1,1.25-.27,2.12,2.12,0,0,1,1.7.59,2.22,2.22,0,0,1,.3,1.82l-.67,4.26Z" transform="translate(-258.97 -274.41)"/><path class="cls-4" d="M516.84,328.58H518l.82,3.73a11.15,11.15,0,0,1,.27,1.78h0c.06-.14.18-.42.37-.82s.35-.73.48-1l1.91-3.72h1.16l-4,7.46a4.56,4.56,0,0,1-1.23,1.55,2.37,2.37,0,0,1-1.47.47,3.57,3.57,0,0,1-.87-.1l.13-.85a2.85,2.85,0,0,0,.7.07,1.54,1.54,0,0,0,.92-.28A2.42,2.42,0,0,0,518,336l.48-.87Z" transform="translate(-258.97 -274.41)"/></svg>